HIERARCHY
ROOT Hips
{
	OFFSET 0.00000 0.00000 0.00000
	CHANNELS 6 Xposition Yposition Zposition Zrotation Yrotation Xrotation 
	JOINT LHipJoint
	{
		OFFSET 0 0 0
		CHANNELS 3 Zrotation Yrotation Xrotation
		JOINT LeftUpLeg
		{
			OFFSET 1.62964 -1.40469 0.78906
			CHANNELS 3 Zrotation Yrotation Xrotation
			JOINT LeftLeg
			{
				OFFSET 2.29640 -6.30932 0.00000
				CHANNELS 3 Zrotation Yrotation Xrotation
				JOINT LeftFoot
				{
					OFFSET 2.29451 -6.30412 0.00000
					CHANNELS 3 Zrotation Yrotation Xrotation
					JOINT LeftToeBase
					{
						OFFSET 0.03611 -0.09921 1.56387
						CHANNELS 3 Zrotation Yrotation Xrotation
						End Site
						{
							OFFSET 0.00000 -0.00000 0.80291
						}
					}
				}
			}
		}
	}
	JOINT RHipJoint
	{
		OFFSET 0 0 0
		CHANNELS 3 Zrotation Yrotation Xrotation
		JOINT RightUpLeg
		{
			OFFSET -1.73712 -1.40469 0.78906
			CHANNELS 3 Zrotation Yrotation Xrotation
			JOINT RightLeg
			{
				OFFSET -2.28137 -6.26801 0.00000
				CHANNELS 3 Zrotation Yrotation Xrotation
				JOINT RightFoot
				{
					OFFSET -2.28681 -6.28298 0.00000
					CHANNELS 3 Zrotation Yrotation Xrotation
					JOINT RightToeBase
					{
						OFFSET -0.15927 -0.43759 1.61103
						CHANNELS 3 Zrotation Yrotation Xrotation
						End Site
						{
							OFFSET -0.00000 -0.00000 0.84630
						}
					}
				}
			}
		}
	}
	JOINT LowerBack
	{
		OFFSET 0 0 0
		CHANNELS 3 Zrotation Yrotation Xrotation
		JOINT Spine
		{
			OFFSET -0.04227 2.04338 -0.00225
			CHANNELS 3 Zrotation Yrotation Xrotation
			JOINT Spine1
			{
				OFFSET -0.02148 2.04482 -0.04273
				CHANNELS 3 Zrotation Yrotation Xrotation
				JOINT Neck
				{
					OFFSET 0 0 0
					CHANNELS 3 Zrotation Yrotation Xrotation
					JOINT Neck1
					{
						OFFSET 0.09180 1.44629 0.19359
						CHANNELS 3 Zrotation Yrotation Xrotation
						JOINT Head
						{
							OFFSET 0.00887 1.40645 0.14750
							CHANNELS 3 Zrotation Yrotation Xrotation
							End Site
							{
								OFFSET -0.00669 1.50671 0.03707
							}
						}
					}
				}
				JOINT LeftShoulder
				{
					OFFSET 0 0 0
					CHANNELS 3 Zrotation Yrotation Xrotation
					JOINT LeftArm
					{
						OFFSET 2.17674 1.86763 -0.06520
						CHANNELS 3 Zrotation Yrotation Xrotation
						JOINT LeftForeArm
						{
							OFFSET 4.65776 -0.00000 0.00000
							CHANNELS 3 Zrotation Yrotation Xrotation
							JOINT LeftHand
							{
								OFFSET 3.55539 -0.00000 0.00000
								CHANNELS 3 Zrotation Yrotation Xrotation
								JOINT LeftFingerBase
								{
									OFFSET 0 0 0
									CHANNELS 3 Zrotation Yrotation Xrotation
									JOINT LeftHandIndex1
									{
										OFFSET 0.70726 -0.00000 0.00000
										CHANNELS 3 Zrotation Yrotation Xrotation
										End Site
										{
											OFFSET 0.57022 -0.00000 0.00000
										}
									}
								}
								JOINT LThumb
								{
									OFFSET 0 0 0
									CHANNELS 3 Zrotation Yrotation Xrotation
									End Site
									{
										OFFSET 0.57892 -0.00000 0.57892
									}
								}
							}
						}
					}
				}
				JOINT RightShoulder
				{
					OFFSET 0 0 0
					CHANNELS 3 Zrotation Yrotation Xrotation
					JOINT RightArm
					{
						OFFSET -2.80694 1.55459 -0.32496
						CHANNELS 3 Zrotation Yrotation Xrotation
						JOINT RightForeArm
						{
							OFFSET -4.71925 -0.00000 -0.00000
							CHANNELS 3 Zrotation Yrotation Xrotation
							JOINT RightHand
							{
								OFFSET -3.56990 -0.00000 0.00000
								CHANNELS 3 Zrotation Yrotation Xrotation
								JOINT RightFingerBase
								{
									OFFSET 0 0 0
									CHANNELS 3 Zrotation Yrotation Xrotation
									JOINT RightHandIndex1
									{
										OFFSET -0.50776 -0.00000 0.00000
										CHANNELS 3 Zrotation Yrotation Xrotation
										End Site
										{
											OFFSET -0.40937 -0.00000 0.00000
										}
									}
								}
								JOINT RThumb
								{
									OFFSET 0 0 0
									CHANNELS 3 Zrotation Yrotation Xrotation
									End Site
									{
										OFFSET -0.41562 -0.00000 0.41562
									}
								}
							}
						}
					}
				}
			}
		}
	}
}
MOTION
Frames: 5
Frame Time: .0083333
9.1665 16.3955 19.2852 0 0 0 0 0 0 -21 0 0 0 0 0 0 0 0 0 0 0 0 0 0 21 0 0 0 0 0 0 0 0 0 0 0 0 0 0 0 0 0 0 0 0 0 0 -16 0 0 21 0 0 11 0 0 0 -8 0 0 0 0 0 0 0 0 0 0 0 0 0 0 0 0 0 0 0 0 8 0 0 0 0 0 0 0 0 0 0 0 0 0 0 0 0 0
9.1665 16.3955 19.2852 -179.6970 -1.1595 -152.1490 0.0000 0.0000 0.0000 -15.9568 -16.0949 -24.5871 0.2182 3.0072 8.2987 0.1376 1.6001 -7.7854 5.6070 -14.0364 -43.3835 0.0000 0.0000 0.0000 15.0815 14.7441 -26.1183 -0.2654 -3.3139 9.1540 -0.9187 2.4245 -17.4584 -3.1909 10.9978 -32.2725 -5.0654 -1.2219 -26.4357 -0.2901 -0.6117 -1.6317 2.3103 -0.8016 12.9919 -8.4778 -4.4347 3.0349 17.2632 -5.7383 -11.1034 6.9266 -3.6585 -2.9494 -0.0000 0.0000 0.0000 -86.4464 -4.7192 25.0673 9.2051 -15.4868 -1.2543 -0.0000 -0.0000 11.3361 21.9248 -13.1220 -5.2211 -7.1250 0.0000 -0.0000 -3.7192 15.8940 2.5639 -0.0000 0.0000 0.0000 92.9159 2.4677 3.9215 -12.0336 19.8551 -2.1137 0.0000 0.0000 10.0500 -13.2066 -48.4900 9.9668 7.1250 -0.0000 -0.0000 50.4723 -74.2465 -37.0256
9.1673 16.3947 19.2824 -179.7230 -1.1917 -152.1780 0.0000 0.0000 0.0000 -15.9560 -16.1595 -24.5437 0.2203 3.0216 8.3389 0.1425 1.5797 -7.8946 5.3996 -13.8202 -42.5219 0.0000 0.0000 0.0000 15.0341 14.8638 -25.9702 -0.2603 -3.2822 9.0654 -0.9203 2.1967 -17.5216 -3.2156 11.0362 -32.4020 -5.1122 -1.2410 -26.4158 -0.2935 -0.6250 -1.6416 2.3286 -0.8102 12.9708 -8.2814 -4.4663 2.6794 17.1018 -5.7847 -10.9189 6.8215 -3.6630 -2.8412 0.0000 0.0000 0.0000 -86.3608 -4.7055 25.6762 9.4833 -15.9273 -1.3296 -0.0000 -0.0000 10.8702 21.6841 -13.4761 -5.2941 -7.1250 0.0000 -0.0000 -3.9007 15.5417 2.7193 0.0000 0.0000 0.0000 92.9210 2.4058 4.3158 -12.1978 20.1006 -2.1698 0.0000 0.0000 9.8807 -12.7014 -49.3342 9.7015 7.1250 -0.0000 -0.0000 53.5006 -74.5053 -39.7790
9.1676 16.3935 19.2781 -179.7310 -1.2390 -152.2550 0.0000 0.0000 0.0000 -15.9340 -16.2530 -24.4041 0.2226 3.0368 8.3811 0.1514 1.4736 -8.0455 5.0131 -13.3985 -40.8792 0.0000 0.0000 0.0000 15.0546 14.9132 -25.7561 -0.2538 -3.2412 8.9509 -0.9189 2.0568 -17.5386 -3.2047 11.0193 -32.3450 -5.1257 -1.2739 -26.3928 -0.2803 -0.6636 -1.6266 2.3375 -0.8281 12.9796 -8.0489 -4.6001 2.4426 16.9830 -5.9620 -11.0056 6.7388 -3.7551 -2.8155 0.0000 -0.0000 0.0000 -86.3111 -4.7634 26.0733 9.7159 -16.2939 -1.3942 -0.0000 -0.0000 10.5178 21.9052 -13.4974 -5.3616 -7.1250 0.0000 -0.0000 -3.7498 15.4960 2.6173 0.0000 -0.0000 0.0000 92.8919 2.4325 4.6022 -12.3009 20.2543 -2.2053 0.0000 0.0000 9.7099 -12.2044 -49.6694 9.3627 7.1250 -0.0000 -0.0000 54.9479 -74.4849 -40.9728
9.1684 16.3942 19.2760 -179.7360 -1.3040 -152.3180 0.0000 0.0000 0.0000 -15.9931 -16.1555 -24.3924 0.2294 3.0825 8.5086 0.1527 1.3652 -8.0131 5.2411 -13.6503 -41.8542 0.0000 0.0000 0.0000 15.0528 15.0338 -25.5600 -0.2485 -3.2076 8.8572 -0.9169 1.8427 -17.5682 -3.1508 10.9352 -32.0616 -5.1375 -1.3181 -26.3557 -0.2539 -0.7198 -1.6133 2.3543 -0.8540 12.9803 -8.0657 -4.4977 2.4149 16.7491 -5.8305 -10.7366 6.6558 -3.6556 -2.7579 -0.0000 -0.0000 0.0000 -86.3019 -4.8621 26.2123 9.8829 -16.5562 -1.4414 -0.0000 -0.0000 10.5677 22.2872 -13.6672 -5.5315 -7.1250 0.0000 -0.0000 -3.4960 15.2742 2.4562 -0.0000 -0.0000 0.0000 92.8279 2.4846 4.9139 -12.3633 20.3472 -2.2270 0.0000 0.0000 9.4357 -12.2418 -49.5978 9.3821 7.1250 -0.0000 -0.0000 54.6904 -74.4638 -40.7349
